<?xml version="1.0" standalone="no"?>
<!DOCTYPE svg PUBLIC "-//W3C//DTD SVG 20010904//EN"
 "http://www.w3.org/TR/2001/REC-SVG-20010904/DTD/svg10.dtd">
<svg version="1.0" xmlns="http://www.w3.org/2000/svg"
 width="840.000000pt" height="687.000000pt" viewBox="0 0 840.000000 687.000000"
 preserveAspectRatio="xMidYMid meet">

<g transform="translate(0.000000,687.000000) scale(0.100000,-0.100000)"
fill="#000000" stroke="none">
<path d="M5900 6432 c0 -5 12 -37 27 -73 24 -58 26 -77 27 -195 1 -77 -4 -141
-10 -155 -6 -13 -17 -42 -24 -64 -26 -85 -96 -204 -162 -276 -70 -76 -173
-138 -301 -182 -121 -42 -120 -28 2 55 126 86 245 245 289 388 29 91 38 351
12 335 -4 -3 -20 -28 -35 -57 -63 -122 -219 -276 -345 -344 -19 -10 -42 -24
-50 -30 -51 -37 -292 -122 -405 -144 -33 -6 -72 -16 -87 -21 -14 -6 -37 -7
-50 -3 -20 6 -17 9 27 24 142 48 270 138 351 245 34 45 90 170 71 159 -6 -4
-34 -24 -62 -45 -95 -70 -266 -145 -425 -188 -47 -13 -94 -27 -105 -32 -33
-13 -311 -60 -445 -74 -69 -8 -154 -19 -190 -25 -36 -5 -141 -19 -234 -30 -93
-12 -173 -23 -177 -26 -5 -3 -43 -11 -86 -19 -101 -19 -117 -22 -248 -47 -60
-11 -114 -25 -119 -29 -6 -5 -18 -9 -28 -9 -19 0 -125 -32 -163 -50 -11 -5
-31 -12 -45 -15 -14 -4 -41 -14 -60 -22 -19 -8 -44 -19 -55 -23 -192 -78 -484
-272 -645 -429 -54 -52 -222 -280 -241 -326 -2 -5 -22 -41 -44 -80 -22 -38
-51 -92 -65 -119 -14 -27 -30 -51 -36 -53 -38 -12 -29 208 12 285 8 15 14 31
14 35 0 5 18 45 40 88 44 87 39 90 -38 24 -63 -54 -124 -139 -172 -238 -63
-131 -94 -260 -106 -450 -5 -81 -11 -109 -29 -137 -42 -66 -64 -110 -101 -198
-19 -48 -40 -95 -45 -105 -5 -9 -16 -43 -24 -75 -7 -31 -20 -79 -28 -107 -8
-27 -20 -88 -27 -135 -6 -47 -16 -98 -22 -115 -15 -48 -21 -407 -9 -570 14
-197 27 -292 52 -390 11 -44 26 -105 33 -135 15 -61 61 -208 81 -255 7 -16 20
-50 30 -75 9 -25 23 -60 31 -78 8 -18 14 -37 14 -43 0 -6 6 -25 14 -42 7 -18
30 -79 51 -137 21 -58 46 -123 56 -146 10 -22 27 -63 38 -91 11 -28 29 -70 40
-94 33 -73 71 -170 98 -249 22 -67 35 -113 89 -310 9 -30 26 -106 39 -168 13
-63 26 -116 28 -118 2 -2 16 5 31 17 92 72 140 256 139 529 -1 181 -23 306
-73 415 -5 11 -25 61 -46 110 -20 50 -47 114 -60 143 -13 29 -24 55 -24 57 0
5 -15 40 -60 140 -9 22 -26 65 -36 95 -11 30 -22 56 -26 58 -5 2 -8 11 -8 20
0 12 -3 13 -8 5 -12 -20 -55 -30 -87 -22 -46 13 -139 91 -171 145 -29 48 -29
51 -31 209 -1 163 3 214 31 410 31 215 85 320 176 343 53 13 86 4 205 -56 169
-85 228 -112 241 -112 7 0 14 -3 16 -8 5 -13 140 -60 205 -72 34 -6 75 -17 90
-25 15 -8 33 -15 38 -15 6 0 30 -14 55 -30 25 -17 59 -37 76 -46 42 -20 423
-144 444 -144 9 0 20 -4 26 -9 5 -5 38 -16 74 -24 36 -9 107 -28 159 -42 51
-14 99 -25 107 -25 11 0 14 18 14 78 0 117 14 181 63 284 46 96 73 179 102
308 78 354 225 542 495 634 25 8 92 23 150 32 115 19 278 15 465 -10 55 -8
138 -19 185 -25 47 -7 108 -16 135 -22 76 -16 484 -23 605 -10 135 14 232 28
295 42 158 35 221 52 233 61 6 6 40 11 75 11 177 2 257 -167 279 -591 l3 -52
81 47 c158 93 301 223 388 353 141 210 205 428 205 700 0 142 -27 339 -65 470
-8 30 -22 78 -29 105 -8 28 -22 66 -32 87 l-18 36 -1 -67 c-3 -135 -54 -268
-134 -345 -42 -41 -90 -67 -90 -49 0 4 20 48 45 97 25 48 45 96 45 107 0 10 4
20 9 23 15 10 35 144 34 236 0 90 -19 216 -34 226 -5 3 -9 14 -9 25 0 38 -144
299 -157 285 -3 -3 1 -29 8 -58 18 -68 18 -260 1 -313 -27 -83 -74 -165 -119
-206 -26 -24 -48 -38 -50 -32 -2 5 8 33 21 60 25 49 32 75 56 218 20 115 -2
291 -54 436 -31 87 -118 267 -134 279 -4 3 -25 32 -47 65 -90 135 -267 289
-446 388 -69 39 -79 42 -79 29z"/>
<path d="M1647 3002 c-77 -81 -145 -642 -98 -817 18 -64 84 -137 121 -133 33
4 36 40 15 168 -9 52 -20 122 -26 155 -9 55 0 228 16 325 18 102 27 140 36
140 9 0 31 -11 156 -80 l42 -23 48 30 c26 17 66 36 88 43 22 6 46 14 54 16 18
6 -375 204 -405 204 -11 0 -32 -12 -47 -28z"/>
<path d="M6514 2754 c3 -26 6 -59 6 -73 l0 -26 181 -1 c99 -1 179 0 177 2 -2
1 -53 24 -113 49 -61 25 -119 50 -130 54 -37 16 -111 41 -119 41 -5 0 -6 -21
-2 -46z"/>
<path d="M2725 2541 c18 -36 40 -96 50 -133 11 -42 23 -68 33 -71 10 -3 62
-22 117 -42 55 -20 114 -41 130 -46 17 -5 39 -13 50 -19 39 -19 410 -140 431
-140 30 0 34 16 34 145 l0 114 -52 15 c-75 21 -162 45 -243 66 -38 10 -95 25
-125 34 -30 9 -75 21 -100 27 -25 6 -54 14 -65 19 -11 5 -81 28 -156 53 l-137
44 33 -66z"/>
<path d="M6340 2580 c-161 -19 -308 -47 -403 -76 -93 -28 -222 -77 -237 -90
-41 -34 -105 -48 -230 -48 -100 -1 -136 3 -180 19 -30 10 -59 22 -65 26 -5 4
-48 17 -95 28 -47 12 -101 26 -120 31 -166 42 -648 47 -863 10 -28 -5 -117
-21 -195 -34 -204 -36 -271 -59 -290 -102 -6 -13 -14 -81 -18 -152 l-7 -128
32 -36 c38 -44 56 -103 70 -228 5 -52 21 -187 36 -300 35 -283 58 -352 138
-431 83 -83 219 -124 407 -123 273 1 501 70 626 191 62 59 144 185 190 290 14
32 32 72 40 88 16 36 60 160 80 230 9 28 19 59 24 70 5 11 19 56 31 100 33
124 59 164 125 191 45 19 67 18 92 -4 26 -23 29 -41 47 -317 21 -309 45 -421
112 -522 86 -130 194 -171 418 -158 140 7 262 22 290 35 11 4 43 16 70 26 69
24 144 75 193 130 35 40 132 216 132 240 0 5 6 21 14 36 16 30 79 230 94 298
19 83 52 204 74 274 16 49 34 80 64 110 45 46 57 90 56 203 -1 72 -9 92 -40
99 -15 3 -38 10 -52 17 -30 13 -559 19 -660 7z m278 -140 c95 -16 146 -54 158
-118 17 -90 -8 -301 -64 -552 -73 -324 -216 -493 -449 -530 -90 -15 -226 -15
-288 -1 -111 26 -187 112 -219 248 -26 111 -42 400 -29 544 11 134 26 180 78
235 108 117 565 214 813 174z m-1793 -90 c249 -28 350 -117 332 -291 -8 -76
-44 -258 -57 -284 -5 -11 -14 -40 -20 -65 -27 -109 -103 -278 -168 -372 -81
-118 -223 -207 -373 -233 -121 -22 -281 -26 -358 -9 -105 22 -183 93 -210 189
-37 130 -97 672 -84 760 8 56 56 150 95 186 43 39 119 76 188 90 165 35 480
49 655 29z"/>
<path d="M2820 2231 c0 -11 65 -173 84 -208 11 -22 37 -34 162 -74 82 -27 155
-49 162 -49 7 0 20 -4 30 -10 9 -5 42 -16 73 -23 l55 -14 12 80 c13 88 9 101
-36 112 -15 4 -40 13 -57 20 -16 8 -77 31 -135 51 -58 19 -118 42 -135 49 -16
7 -55 20 -85 30 -30 9 -69 23 -87 31 -36 16 -43 17 -43 5z"/>
</g>
</svg>
